<?xml version="1.0" encoding="utf-8"?>
<!-- Generator: Adobe Illustrator 23.0.6, SVG Export Plug-In . SVG Version: 6.00 Build 0)  -->
<svg version="1.1" id="Layer_1" xmlns="http://www.w3.org/2000/svg" xmlns:xlink="http://www.w3.org/1999/xlink" x="0px" y="0px"
	 viewBox="0 0 3000 3000" style="enable-background:new 0 0 3000 3000;" xml:space="preserve">
<style type="text/css">
	.st0{clip-path:url(#SVGID_2_);fill:#0A0A3F;}
	.st1{clip-path:url(#SVGID_2_);fill:#FFFFFF;}
</style>
<g>
	<defs>
		<rect id="SVGID_1_" width="3000" height="3000"/>
	</defs>
	<clipPath id="SVGID_2_">
		<use xlink:href="#SVGID_1_"  style="overflow:visible;"/>
	</clipPath>
	<path class="st0" d="M1004.56,390.61c3.9,0.24,6.59,0.41,9.7,0.6v10.17c-7.61,0-15.09,0.35-22.52-0.08
		c-12.4-0.71-12.46-0.93-13.08,11.62c-0.14,2.78,0.38,5.59,0.66,9.28c4.99,0,9.53-0.25,14.02,0.05c8.86,0.59,12.21,8.02,6.91,15.61
		c-6.34,9.08-12.7,18.2-19.76,26.64c-2.37,2.83-6.92,5.16-10.49,5.18c-52.87,0.32-105.74,0.29-158.61,0
		c-3.15-0.02-7.14-2.05-9.29-4.53c-7.36-8.51-14.38-17.39-20.84-26.65c-1.98-2.83-3.3-8.1-2.07-10.89c1.19-2.72,5.86-4.48,9.29-5.25
		c3.91-0.88,8.14-0.2,13.62-0.2c0-6.42,0.54-12.36-0.37-18.05c-0.23-1.47-4.94-2.98-7.64-3.07c-10.44-0.35-20.91-0.14-31.79-0.14
		v-9.6c4.46-0.27,8.69-0.52,13.75-0.82c0-11.57-0.8-22.83,0.21-33.9c1.13-12.27,2.09-25.13,6.37-36.38
		c8.43-22.17,25.24-35.56,46.62-44.29c16.66-6.8,29.54-4.82,41.4,9.14c4.5,5.3,10.59,9.09,15.84,13.72c2.7,2.38,4.46,2.54,7.51-0.18
		c9.72-8.67,19.78-16.96,30.09-24.85c2.14-1.63,6.11-1.78,8.92-1.13c22.82,5.33,42.02,17.32,56.87,36.2
		c10.27,13.05,13.53,29.11,14.54,45.48C1005.15,366.16,1004.56,378.12,1004.56,390.61 M968.33,347.61H812.29v111.31h156.03V347.61z
		 M994.14,390.97c0-14.28,0.42-27.87-0.09-41.42c-0.84-22.21-10.82-39.32-28.86-50.75c-9.13-5.78-19.17-9.96-28.69-15.09
		c-4.65-2.51-8.34-2.07-12.35,1.69c-8.33,7.81-17.06,15.16-25.6,22.72c-5.07,4.5-9.57,5.87-15.4,0.31
		c-9.11-8.71-18.86-16.71-28.75-24.45c-2.48-1.94-6.99-3.19-9.74-2.22c-9.48,3.35-18.85,7.28-27.78,11.99
		c-12.76,6.74-21.85,17.56-26.27,31.77c-6.56,21.12-3.83,42.97-4.15,64.98h15.4c0-13.18,0.02-25.57-0.01-37.97
		c-0.03-11.68,4.02-16.19,14.94-16.13c13.5,0.07,27,0.48,40.49,0.45c35.68-0.08,71.36-0.3,107.04-0.5
		c11.19-0.06,14.53,3.16,14.51,14.65c-0.02,10.29-0.28,20.57-0.36,30.85c-0.02,2.99,0.24,5.98,0.38,9.11H994.14z M979.21,446.8
		c0.43,0.2,0.85,0.41,1.28,0.61c3.29-4.5,6.58-9,10.48-14.34h-11.76V446.8z M789.74,432.98c4.31,5.41,7.53,9.44,11.52,14.45v-14.45
		H789.74z"/>
	<path class="st0" d="M957.38,187.54c0.66,41.02-34.51,69.6-66.81,70.03c-35.15,0.47-67.99-32.9-67.33-70.29
		c0.69-39.03,30.27-70.52,67.25-70.28C927.8,117.24,957.43,148.48,957.38,187.54 M888.68,246.81c31.46,0.74,57.86-25.05,58.68-57.33
		c0.85-33.33-23.87-60.99-55.21-61.76c-31.59-0.78-57.79,24.91-58.85,57.26C832.28,216.27,856.24,247.77,888.68,246.81"/>
	<path class="st0" d="M1052.56,342.38h27.41c5.94,0,9.05,2.74,9.94,9.25c0.65,4.72,3.2,9.13,4.33,13.82c0.48,1.98-0.22,4.44-0.9,6.5
		c-1.12,3.4-3.62,6.58-3.87,9.99c-1.36,18.52-2.21,37.08-3.22,55.63c-0.3,5.54-3.08,8.17-8.36,8.16
		c-16.23-0.02-32.45-0.03-48.68,0.05c-6.7,0.04-8.52-4.25-8.82-10.2c-0.88-17.4-1.77-34.79-2.73-52.18
		c-0.26-4.66,0.4-9.61-4.41-12.8c-0.91-0.6-1.07-3.5-0.64-5.05c1.34-4.87,4.02-9.51,4.53-14.43c0.68-6.52,3.99-8.84,9.38-8.98
		c8.68-0.22,17.36-0.06,26.05-0.06C1052.56,342.19,1052.56,342.28,1052.56,342.38 M1076.34,435.05c1.26-20.67,2.49-40.63,3.74-61.12
		h-53.17c1.26,20.61,2.5,40.73,3.75,61.12H1076.34z M1027.48,352.54c-0.57,3.51-1.01,6.27-1.56,9.62h54.69
		c-0.77-4.09,1.71-9.54-5.12-9.59C1059.79,352.47,1044.09,352.54,1027.48,352.54"/>
	<path class="st0" d="M1057.48,290.28c-0.83,2.06-1.02,3.76-1.94,4.61c-5.67,5.26-2.94,9.75,0.5,14.82
		c6.05,8.91,5.01,19.44-2.48,24.7c-1.71,1.2-5.23,1.02-7.1-0.07c-1.01-0.59-1.26-5.55-0.15-6.64c5.7-5.57,3.58-10.15-0.31-15.46
		c-5.84-7.98-5.13-17.13,1.77-23.76c1.55-1.49,4.46-2,6.71-1.91C1055.58,286.62,1056.58,289.09,1057.48,290.28"/>
	<path class="st1" d="M968.33,458.91H812.29V347.6h156.03V458.91z M897.69,404.06c-3.32-2.96-5.09-5.77-6.89-5.79
		c-1.94-0.02-3.91,2.57-5.87,4.02c1.87,1.98,3.47,4.63,5.74,5.67C891.82,408.48,894.18,406.12,897.69,404.06"/>
	<path class="st1" d="M994.14,390.97h-15.28c-0.14-3.13-0.4-6.13-0.38-9.11c0.07-10.29,0.34-20.57,0.36-30.85
		c0.02-11.49-3.31-14.71-14.51-14.65c-35.68,0.2-71.36,0.42-107.04,0.5c-13.5,0.03-27-0.39-40.49-0.46
		c-10.92-0.05-14.97,4.45-14.94,16.13c0.03,12.39,0.01,24.79,0.01,37.97h-15.4c0.32-22.01-2.41-43.86,4.15-64.98
		c4.42-14.21,13.51-25.04,26.27-31.77c8.93-4.71,18.3-8.65,27.78-11.99c2.75-0.97,7.26,0.28,9.74,2.22
		c9.89,7.74,19.65,15.74,28.75,24.45c5.83,5.57,10.33,4.19,15.4-0.31c8.54-7.57,17.27-14.92,25.6-22.72
		c4.01-3.76,7.7-4.19,12.35-1.69c9.52,5.13,19.57,9.31,28.69,15.09c18.04,11.43,28.02,28.54,28.86,50.75
		C994.56,363.1,994.14,376.68,994.14,390.97"/>
	<path class="st1" d="M979.21,446.8v-13.72h11.76c-3.9,5.33-7.19,9.83-10.48,14.34C980.06,447.21,979.63,447.01,979.21,446.8"/>
	<path class="st1" d="M789.74,432.98h11.52v14.45C797.27,442.43,794.06,438.39,789.74,432.98"/>
	<path class="st1" d="M888.68,246.81c-32.44,0.96-56.4-30.54-55.37-61.84c1.06-32.35,27.26-58.04,58.85-57.26
		c31.33,0.77,56.05,28.43,55.21,61.76C946.55,221.76,920.14,247.55,888.68,246.81"/>
	<path class="st1" d="M1076.34,435.04h-45.68c-1.25-20.38-2.49-40.51-3.75-61.12h53.17
		C1078.83,394.42,1077.61,414.38,1076.34,435.04"/>
	<path class="st1" d="M1027.48,352.54c16.61,0,32.31-0.07,48.02,0.03c6.83,0.05,4.34,5.5,5.12,9.59h-54.69
		C1026.46,358.81,1026.91,356.06,1027.48,352.54"/>
	<path class="st0" d="M897.69,404.06c-3.51,2.06-5.88,4.43-7.01,3.9c-2.27-1.05-3.87-3.69-5.74-5.67c1.96-1.45,3.93-4.04,5.87-4.02
		C892.6,398.29,894.37,401.1,897.69,404.06"/>
</g>
</svg>
